<?xml version="1.0" encoding="UTF-8"?>
<svg id="Layer_2" xmlns="http://www.w3.org/2000/svg" version="1.1" xmlns:xlink="http://www.w3.org/1999/xlink" viewBox="0 0 106.74 717.59">
  <!-- Generator: Adobe Illustrator 30.2.1, SVG Export Plug-In . SVG Version: 2.1.1 Build 1)  -->
  <defs>
    <style>
      .st0 {
        fill: url(#_무제_그라디언트_384);
      }

      .st1 {
        fill: url(#_무제_그라디언트_382);
      }

      .st2 {
        fill: url(#_무제_그라디언트_387);
      }

      .st3 {
        fill: url(#_무제_그라디언트_386);
      }

      .st4 {
        fill: url(#_무제_그라디언트_38);
      }

      .st5 {
        fill: url(#_무제_그라디언트_389);
      }

      .st6 {
        fill: url(#_무제_그라디언트_388);
      }

      .st7 {
        fill: url(#_무제_그라디언트_383);
      }

      .st8 {
        fill: url(#_무제_그라디언트_3813);
      }

      .st9 {
        fill: url(#_무제_그라디언트_3812);
      }

      .st10 {
        fill: url(#_무제_그라디언트_381);
        fill-rule: evenodd;
      }

      .st11 {
        fill: url(#_무제_그라디언트_3810);
      }

      .st12 {
        fill: url(#_무제_그라디언트_385);
      }

      .st13 {
        fill: url(#_무제_그라디언트_3814);
      }

      .st14 {
        fill: url(#_무제_그라디언트_3811);
      }
    </style>
    <linearGradient id="_무제_그라디언트_38" data-name="무제 그라디언트 38" x1="28.72" y1="617.26" x2="72.65" y2="617.26" gradientUnits="userSpaceOnUse">
      <stop offset="0" stop-color="#2a6eff"/>
      <stop offset=".99" stop-color="#89d6fd"/>
    </linearGradient>
    <linearGradient id="_무제_그라디언트_381" data-name="무제 그라디언트 38" x1="24.33" y1="99.15" x2="77.04" y2="99.15" xlink:href="#_무제_그라디언트_38"/>
    <linearGradient id="_무제_그라디언트_382" data-name="무제 그라디언트 38" x1="26.53" y1="261.48" x2="74.84" y2="261.48" xlink:href="#_무제_그라디언트_38"/>
    <linearGradient id="_무제_그라디언트_383" data-name="무제 그라디언트 38" x1="42.37" y1="366.7" x2="73.74" y2="366.7" xlink:href="#_무제_그라디언트_38"/>
    <linearGradient id="_무제_그라디언트_384" data-name="무제 그라디언트 38" x1="27.63" y1="358.3" x2="59.12" y2="358.3" xlink:href="#_무제_그라디언트_38"/>
    <linearGradient id="_무제_그라디언트_385" data-name="무제 그라디언트 38" x1="28.71" y1="413.01" x2="72.66" y2="413.01" xlink:href="#_무제_그라디언트_38"/>
    <linearGradient id="_무제_그라디언트_386" data-name="무제 그라디언트 38" x1="28.85" y1="514.03" x2="72.52" y2="514.03" xlink:href="#_무제_그라디언트_38"/>
    <linearGradient id="_무제_그라디언트_387" data-name="무제 그라디언트 38" x1="26.53" y1="46.26" x2="74.84" y2="46.26" xlink:href="#_무제_그라디언트_38"/>
    <linearGradient id="_무제_그라디언트_388" data-name="무제 그라디언트 38" y1="155.2" y2="155.2" xlink:href="#_무제_그라디언트_38"/>
    <linearGradient id="_무제_그라디언트_389" data-name="무제 그라디언트 38" y1="210.97" x2="72.65" y2="210.97" xlink:href="#_무제_그라디언트_38"/>
    <linearGradient id="_무제_그라디언트_3810" data-name="무제 그라디언트 38" x1="28.27" y1="311.99" x2="73.11" y2="311.99" xlink:href="#_무제_그라디언트_38"/>
    <linearGradient id="_무제_그라디언트_3811" data-name="무제 그라디언트 38" y1="463.52" y2="463.52" xlink:href="#_무제_그라디언트_38"/>
    <linearGradient id="_무제_그라디언트_3812" data-name="무제 그라디언트 38" y1="567" x2="72.65" y2="567" xlink:href="#_무제_그라디언트_38"/>
    <linearGradient id="_무제_그라디언트_3813" data-name="무제 그라디언트 38" x1="34.14" y1="672.48" x2="66.62" y2="672.48" xlink:href="#_무제_그라디언트_38"/>
    <linearGradient id="_무제_그라디언트_3814" data-name="무제 그라디언트 38" x1="27.65" y1="661.38" x2="73.11" y2="661.38" xlink:href="#_무제_그라디언트_38"/>
  </defs>
  <path class="st4" d="M34.39,623.07c.77,0,1.21-.44,1.21-1.21v-9.21c0-.77-.44-1.21-1.21-1.21h-5.66v11.64h5.66ZM45.22,617.24c0,2.52,1.8,4.68,4.15,5.25v-10.46c-1.18.26-2.24.92-3,1.87-.75.95-1.16,2.13-1.15,3.34ZM51.91,622.49c2.37-.57,4.12-2.73,4.15-5.25.02-2.52-1.77-4.64-4.15-5.2v10.46ZM66.99,611.44c-.77,0-1.21.44-1.21,1.21v9.21c0,.77.44,1.21,1.21,1.21h5.66v-11.64h-5.66ZM72.65,625.61h-5.71c-2.33,0-3.71-1.37-3.71-3.71v-9.31c0-2.33,1.37-3.7,3.71-3.7h5.71v-1.63c0-3.25-1.66-4.89-4.95-4.89h-15.79v7.27c3.69.6,6.42,3.74,6.47,7.6.05,3.89-2.76,7.03-6.47,7.63v7.26h15.79c3.3,0,4.95-1.64,4.95-4.89v-1.64ZM28.72,625.61v1.64c0,3.25,1.67,4.89,4.95,4.89h15.69v-7.26c-3.69-.58-6.47-3.72-6.47-7.63s2.78-7.07,6.47-7.63v-7.24h-15.69c-3.28,0-4.95,1.62-4.95,4.89v1.63h5.71c2.33,0,3.71,1.37,3.71,3.7v9.31c0,2.33-1.37,3.71-3.71,3.71h-5.71Z"/>
  <path class="st10" d="M59.68,78.61c.74-.68,1.93-.68,2.66,0,.73.68.73,1.79,0,2.47l-6.4,5.94c5.42.1,10.68.44,15.33.97h.05c2.23.57,3.99,2.15,4.61,4.19l-.07-.38c.77,3.69,1.17,7.51,1.17,11.4,0,.14,0,.28,0,.39v.39c0,3.89-.4,7.7-1.1,11.02v.04c-.62,2-2.38,3.58-4.66,4.15l.76-.07c-6.37.71-12.86,1.07-19.45,1.07-.67,0-1.34,0-1.9-.01h.1c-.67,0-1.34.01-2,.01-6.59,0-13.08-.36-18.69-1h-.05c-2.23-.57-3.99-2.15-4.61-4.19l.07.38c-.77-3.69-1.17-7.5-1.17-11.4v-.37c0-.14,0-.27,0-.41,0-3.89.4-7.71,1.1-11.02v-.04c.62-2,2.38-3.58,4.66-4.15l-.76.07c5.23-.58,10.54-.92,15.91-1.03l-6.4-5.94c-.73-.68-.73-1.79,0-2.47.74-.68,1.93-.68,2.66,0l9.03,8.38s.08,0,.11,0l9.04-8.38ZM33.74,98.35v10.49h7.63v-1.8h-5.15v-8.69h-2.48ZM42.97,98.35v10.49h2.47v-10.49h-2.47ZM46.78,98.35l4.14,10.49h3.19l4.13-10.49h-2.74l-2.92,7.99h-.12l-2.9-7.99h-2.77ZM59.59,98.35v10.49h8.04v-1.8h-5.56v-2.55h5.13v-1.8h-5.13v-2.55h5.55v-1.8h-8.02Z"/>
  <path class="st1" d="M74.82,273.47c0-.85-.14-2.46-.42-4.84-.28-2.38-.64-4.89-1.06-7.54-.42-2.64-.87-5.09-1.34-7.32-.22-1.49-.66-2.95-1.32-4.33-1.02-1.36-2.38-2.49-3.96-3.29-1.61-.95-3.49-1.47-5.42-1.51-1.72.05-3.36.69-4.57,1.8l-2.17,1.8h-7.87l-2.14-1.8c-1.21-1.12-2.86-1.77-4.59-1.8-1.95.03-3.85.57-5.47,1.55-1.54.82-2.87,1.93-3.91,3.25-.7,1.36-1.16,2.8-1.37,4.29-.47,2.26-.9,4.72-1.29,7.39s-.71,5.18-.97,7.56c-.25,2.41-.38,4.01-.38,4.8-.11.74.01,1.48.37,2.16.35.67.91,1.23,1.61,1.62,1.02.6,2.18.97,3.39,1.06,1.4-.06,2.73-.59,3.72-1.49,1.24-1,2.38-2.09,3.42-3.26,1.05-1.19,2-2.28,2.85-3.27.85-1.02,1.54-1.53,2.07-1.53h13.25c.5,0,1.19.51,2.07,1.53.88.99,1.87,2.08,2.95,3.27,1.06,1.16,2.22,2.26,3.46,3.26,1,.89,2.32,1.42,3.72,1.48,1.2-.09,2.35-.46,3.34-1.06.69-.4,1.25-.96,1.61-1.63.36-.67.5-1.41.42-2.15ZM46.69,259h-4.05v3.61h-4v-3.61h-4v-3.6h4v-3.65h4v3.65h4.05v3.6ZM64.22,253.31c0,.27-.06.54-.18.8-.12.25-.29.48-.51.67-.2.2-.45.35-.72.46s-.56.16-.86.16-.59-.06-.86-.16-.52-.26-.72-.46c-.22-.19-.39-.42-.51-.67-.12-.25-.18-.52-.18-.8,0-.27.06-.53.18-.78.12-.25.29-.47.51-.65.2-.2.45-.35.72-.46.27-.11.56-.16.86-.16.3,0,.59.06.86.16.27.11.52.26.72.46.22.18.39.4.51.65.12.24.18.51.18.78ZM59.69,257.17c0,.28-.06.55-.18.8-.12.25-.3.48-.53.67-.21.2-.46.35-.73.46-.28.11-.57.16-.87.16-.3,0-.59-.06-.86-.16-.27-.11-.52-.26-.72-.46-.22-.19-.39-.42-.51-.67-.12-.25-.18-.52-.18-.8,0-.27.06-.53.18-.78.12-.25.29-.46.51-.65.2-.2.45-.35.72-.46.27-.11.56-.16.86-.16.31,0,.62.04.91.15.29.11.55.27.76.47.41.38.64.89.64,1.42ZM68.79,257.17c0,.27-.06.54-.18.8-.12.25-.29.48-.51.67-.2.2-.45.35-.72.46-.27.11-.56.16-.86.16-.3,0-.6-.05-.88-.16-.28-.11-.53-.27-.74-.46-.22-.19-.39-.42-.51-.67-.12-.25-.18-.52-.18-.8,0-.27.06-.53.18-.78.12-.25.29-.46.51-.65.21-.2.46-.36.74-.46.28-.11.58-.16.88-.16s.59.06.86.16c.27.11.52.26.72.46.22.18.39.4.51.65.12.25.18.51.18.78h0ZM64.22,261.03c0,.27-.06.54-.18.8-.12.25-.29.48-.51.67-.2.2-.45.35-.72.46-.27.11-.56.16-.86.16s-.59-.06-.86-.16c-.27-.11-.52-.26-.72-.46-.22-.19-.39-.42-.51-.67-.12-.25-.18-.52-.18-.8,0-.27.06-.53.18-.78.12-.25.29-.47.51-.65.2-.2.45-.35.72-.46.27-.11.56-.16.86-.16s.59.06.86.16c.27.11.52.26.72.46.22.18.39.4.51.65.12.24.18.51.18.78Z"/>
  <path class="st7" d="M65.9,353.02c4.33,0,7.85,3.48,7.85,7.77v8.3c0,3.29-2.06,6.1-4.98,7.23l-.26,3.29c-.06.72-.93,1.05-1.45.54l-3.46-3.3h-13.49c-3.86,0-7.07-2.76-7.72-6.39h9.96c4.82,0,8.73-3.86,8.73-8.63v-8.81h4.84Z"/>
  <path class="st0" d="M51.28,344.61c4.33,0,7.85,3.48,7.85,7.77v8.3c0,4.29-3.51,7.77-7.85,7.77h-13.49l-3.46,3.3c-.52.5-1.4.17-1.45-.55l-.26-3.29c-2.91-1.13-4.98-3.94-4.98-7.23v-8.3c0-4.29,3.51-7.77,7.85-7.77h15.8Z"/>
  <path class="st12" d="M49.3,395.81c.5.27.83.6.99.99.16.39.11.72-.14.99-.25.27-.69.39-1.32.36h-7.15c-.88,0-1.44-.36-1.69-1.08-.16-.54-.19-1.29-.09-2.25.13-.99.36-1.73.71-2.21.44-.69,1.08-.81,1.93-.36l3.1,1.62c2.04,1.05,3.26,1.7,3.67,1.94ZM28.75,402.7h-.05c0-.78.19-1.32.56-1.62.38-.36,1.1-.54,2.16-.54h17.68v8.83h-17.63c-1.07,0-1.79-.18-2.16-.54-.38-.39-.56-1.01-.56-1.84v-4.28ZM30.59,428.88v-16.76h18.43v21.94h-12.08c-2.13,0-3.71-.45-4.75-1.35-1.03-.87-1.57-2.15-1.6-3.83ZM72.66,402.88v4.14c0,.84-.2,1.44-.61,1.8-.38.36-1.1.54-2.16.54h-17.54v-8.83h17.39c1.07,0,1.83.21,2.3.63.41.36.61.93.61,1.71ZM61.94,394.82c.09.96.06,1.7-.09,2.21-.25.75-.81,1.12-1.69,1.12h-7.15c-.63,0-1.07-.13-1.32-.41-.25-.27-.3-.58-.14-.94.16-.39.45-.72.89-.99.47-.27,1.74-.95,3.81-2.03l3.06-1.58c.81-.42,1.46-.28,1.93.41.34.48.58,1.22.71,2.21ZM52.35,412.12l18.01-.04v16.62c0,1.71-.5,3.02-1.5,3.92-1.07.96-2.63,1.44-4.7,1.44h-11.8v-21.94Z"/>
  <path class="st3" d="M69.25,530.38l-16.22-8.81v-18.72l16.22-8.81c.91,0,1.68.31,2.3.93.65.59.97,1.33.97,2.2v30.12c0,.85-.32,1.58-.97,2.2-.62.59-1.38.89-2.3.89ZM45.16,530.89c.03.79-.22,1.47-.75,2.03-.5.59-1.15.93-1.94,1.02.44.03.47.05.09.08h-.66c-.91,0-1.69-.31-2.34-.93-.62-.59-.93-1.32-.93-2.2l.04-9.66c-2.59,0-4.63-.34-6.1-1.02-1.38-.68-2.36-1.71-2.92-3.09-.53-1.21-.8-2.85-.8-4.91,0-2.32.31-4.15.93-5.51.65-1.35,1.68-2.33,3.09-2.92,1.41-.62,3.33-.93,5.75-.93h11.09v18.72h-4.55v9.32Z"/>
  <path class="st2" d="M50.58,21c.95,0,1.83.24,2.62.7l.33.21.03.02h0c2.48,1.83,5.17,3.29,8.09,4.41,2.62.72,5.3,1.31,8.01,1.75l1.18.18h.03s.03.01.03.01c1.03.2,1.91.69,2.62,1.43.71.72,1.14,1.58,1.25,2.55l.08.76-.18.08.04,1.04h0c.04,1.53.04,3.19,0,4.97,0,2.5-.08,5.09-.25,7.79v.04s0,.04,0,.04c-.52,3.76-1.68,7.27-3.49,10.53h0c-1.6,2.89-3.62,5.44-6.09,7.66-2.25,2.01-4.68,3.6-7.3,4.74-2.44,1.05-4.75,1.61-6.92,1.61-2.18,0-4.67-.75-7.41-2.1h-.02c-2.72-1.42-5.3-3.27-7.74-5.54-2.65-2.47-4.76-5.09-6.32-7.88h0c-1.73-3.15-2.62-6.22-2.62-9.22,0-2.83.02-6.07.06-9.71l.06-4.65c0-1.01.38-1.91,1.1-2.68.73-.78,1.67-1.26,2.77-1.41h.03s.03,0,.03,0c3.04-.26,5.98-.93,8.82-2.01l.05-.02.05-.02c3.04-.88,5.71-2.31,8.03-4.29l.04-.04.05-.03c.87-.61,1.87-.92,2.95-.92ZM63.71,39.34c-.24-.02-.4.04-.58.2h-.01s-.01.02-.01.02l-7.2,6.33-7.2,6.33-.85.75-.81-.79-7.23-7.09-.02-.02c-.19-.19-.39-.28-.69-.28h-.08c-.24-.02-.45.04-.68.24-.22.19-.33.39-.36.68,0,.23.09.45.31.67l8.7,8.45.34.23.14.08c.13.06.26.08.4.07.25-.05.42-.14.56-.26h.01s.01-.02.01-.02l7.98-7,7.98-7,.22-.2c.06-.11.09-.22.09-.34v-.07c.02-.29-.06-.5-.25-.7-.19-.19-.39-.28-.69-.28h-.08Z"/>
  <path class="st6" d="M57.48,168.75v3.69h8.49v2.74h-30.57v-2.74h8.49v-3.69c0-.25.08-.47.25-.66.2-.19.41-.28.64-.28h11.88c.23,0,.43.09.59.28.16.19.25.41.25.66ZM69.8,135.2c.79,0,1.46.27,2.01.8.56.54.83,1.18.83,1.94v25.79c0,.76-.28,1.4-.83,1.94-.56.54-1.23.8-2.01.8H31.62c-.79,0-1.47-.27-2.06-.8-.56-.54-.83-1.18-.83-1.94v-25.79c0-.76.28-1.4.83-1.94.59-.54,1.28-.8,2.06-.8h38.18ZM69.8,162.79v-23.95c0-.25-.1-.46-.29-.62-.16-.19-.38-.28-.64-.28h-36.32c-.26,0-.49.09-.69.28-.16.16-.25.36-.25.62v23.95c0,.25.08.47.25.66.2.19.43.28.69.28h36.32c.26,0,.47-.09.64-.28.2-.19.29-.41.29-.66ZM60.03,161.04v-14.48h5.15v14.48h-5.15ZM51.74,161.04v-18.98h5.2v18.98h-5.2ZM36.28,161.04v-5.58h5.15v5.58h-5.15ZM43.5,161.04v-10.03h5.15v10.03h-5.15Z"/>
  <path class="st5" d="M56.56,211.45c-.52-1.44-1.52-2.24-2.99-2.39-1.37-.13-1.98.45-1.81,1.74l.15.99c.13.88.2,1.53.2,1.97,0,.16-.07.34-.2.56-.13.19-.26.31-.39.38-2.87,1.16-5.86,1.27-8.97.33-.16-.03-.31-.13-.44-.28-.1-.19-.16-.34-.2-.47-.1-1.66.2-4.05.88-7.18.72-3.16,1.49-5.57,2.3-7.23,1.01.19,2.06.52,3.14.99.88.38,1.86.88,2.94,1.5,2.42,1.38,4.66,3.32,6.71,5.82.23.28.34.55.34.8,0,.22-.11.45-.34.7-.2.25-.49.64-.88,1.17l-.44.61ZM59.35,206.56c-1.6-2.22-3.56-4.1-5.88-5.64-2.12-1.41-4.64-2.6-7.55-3.57l2.65-4.04c.65-1,1.18-1.72,1.57-2.16.13-.16.31-.27.54-.33.26-.09.46-.13.59-.09,2.12.72,3.94,1.91,5.44,3.57,1.44,1.6,2.42,3.44,2.94,5.54.52,2.1.49,4.18-.1,6.25l-.2.47ZM39.31,213.56c-1.89-1.03-3.41-2.57-4.56-4.6-1.47-2.57-1.94-5.42-1.42-8.55.07-.38.18-.64.34-.8.2-.19.49-.3.88-.33,1.37-.16,2.52-.25,3.43-.28,1.27-.03,2.47.05,3.58.23-1.47,4.38-2.22,9.16-2.25,14.32ZM59.06,210.55l.44,4.74c.39.03.7-.05.93-.23.2-.16.38-.41.54-.75.39-.97.98-2.44,1.76-4.41l.69-1.83c.29-.81.54-1.39.74-1.74.1-.16.36-.33.78-.52l.44-.19.15.38c.13.41.18.69.15.85-.29,1.28-.75,3.22-1.37,5.82l-.59,2.25.05.47.29-.19c.23-.13.36-.22.39-.28.75-1.16,1.34-2.22,1.76-3.19.52-1.19.85-2.36.98-3.52.13-.85.41-1.63.83-2.35.1-.19.41-.36.93-.52l.49-.14.15.38c.13.38.18.66.15.85-.2,1.82-.42,3.43-.69,4.84-.26,1.38-.98,2.61-2.16,3.71-1.18,1.06-2.53,1.74-4.07,2.02-.72.13-1.58.39-2.6.8-.56.22-1.11.23-1.67.05-.56-.19-.95-.52-1.18-.99-.46-.97-.52-2.07-.2-3.29.33-1.25.95-2.25,1.86-3.01ZM41.81,216.24c.65.16,1.09.3,1.32.42.23.09.38.23.44.42.1.19.18.55.25,1.08v.19c.2,1.44.51,3.07.93,4.88.1.44.08.78-.05,1.03-.13.25-.39.39-.78.42-.91.06-1.68-.06-2.3-.38-1.05-.53-2.48-1.39-4.31-2.58l-.25-.14c-1.08-.72-1.85-1.3-2.3-1.74-.78-.72-1.27-1.53-1.47-2.44-.13-.56-.21-1.42-.25-2.58l-.05-.38c-.03-.78-.02-1.57.05-2.35,0-.13.03-.27.1-.42.1-.16.2-.25.29-.28.1-.03.23-.02.39.05.2.06.33.14.39.23.33.5.54.99.64,1.46.1.41.2.99.29,1.74.2,1.22.38,2.11.54,2.68.2.53.56,1.3,1.08,2.3l.54.99.25-.09-.64-7.18c.78.5,1.34.92,1.67,1.27.46.5.72,1.1.78,1.78.13.81.49,2.02,1.08,3.62l.29.75c.03.16.21.38.54.66l.34.28.2-.19v-5.49ZM46.51,189.94c-.2.31-.47.78-.83,1.41-1.24,2.16-2.19,3.77-2.84,4.84-.07.09-.18.19-.34.28-.13.06-.26.09-.39.09-1.21.03-3.05.05-5.54.05h-1.57c.23-1.06,1-2.16,2.3-3.29,1.27-1.03,2.74-1.86,4.41-2.49,1.76-.69,3.36-.99,4.8-.89ZM35.93,225.96c1.73,1.75,3.04,3.1,3.92,4.04.56.63,1.06,1.3,1.52,2.02h8.38v-1.36c.03-1.16.16-2.19.39-3.1.29-1.06.74-2.02,1.32-2.86.72-1,1.01-2.1.88-3.29-.03-.19-.05-.47-.05-.85.03-.41.03-.7,0-.89,0-.19-.07-.47-.2-.85l-.15-.33-.39.14c-.42.13-.74.25-.93.38-.29.19-.52.49-.69.89-.07.22-.18.58-.34,1.08-.16.63-.31,1.1-.44,1.41-.26.59-.59,1-.98,1.22-1.44.85-2.63,1.44-3.58,1.78-1.96.72-3.81.52-5.54-.61l1.13-.19c-.78-.56-1.98-1.27-3.58-2.11l-.64-.33c-.49-.25-.82-.47-.98-.66-.39-.53-.96-1.31-1.72-2.35l-1.27-1.83c-.69-.97-1.23-1.67-1.62-2.11-.13-.19-.44-.38-.93-.56l-.49-.19-.25.33v.14c.03.16.07.27.1.33l.44,1.03c.91,2.03,1.6,3.57,2.06,4.6.26.53.6,1,1.03,1.41.46.5,1.16,1.22,2.11,2.16l1.47,1.5ZM72.43,208.91c-.1-.03-.23-.05-.39-.05s-.28.05-.34.14c-.59.66-1.01,1.24-1.27,1.74-.13.25-.31.67-.54,1.27-.2.56-.36.97-.49,1.22-.1.22-.33.53-.69.94-.33.38-.54.67-.64.89-.56,1.13-1.5,1.89-2.84,2.3-.72.19-1.81.47-3.28.85l-1.47.38,1.47.85c-1.01.13-1.94.05-2.79-.23-.85-.31-1.54-.8-2.06-1.46s-.82-1.41-.88-2.25l-.05-.61v-.7c-.13-1.22-.41-2.13-.83-2.72-.52-.75-1.27-1.13-2.25-1.13l-.15.42c-.16.41-.23.7-.2.89.07.91.21,2.27.44,4.09.23,2.19.39,3.84.49,4.93.1,1,.08,1.85-.05,2.54-.16.88-.49,1.66-.98,2.35-.39.53-.72,1.11-.98,1.74-.26.63-.41,1.22-.44,1.78l-.15,2.96h6.81v-1.83c-.03-2.03.6-3.65,1.91-4.84.88-.78,2.22-1.93,4.02-3.43l2.79-2.39c.29-.25.77-.59,1.42-1.03.82-.56,1.4-1.02,1.76-1.36.56-.59.91-1.28,1.08-2.07.2-.78.57-1.97,1.13-3.57l.64-1.97c.03-.09.02-.2-.05-.33-.03-.16-.08-.25-.15-.28Z"/>
  <path class="st11" d="M71.38,313.79l1.72,9.23-2.89-1.17c-1.25,2.24-2.87,4.18-4.87,5.83-1.96,1.68-4.18,2.98-6.64,3.89-2.57.97-5.24,1.46-8.01,1.46-3.08,0-6-.58-8.77-1.75-2.71-1.1-5.09-2.66-7.15-4.66-2.03-2.01-3.58-4.31-4.67-6.9h5.53c1.49,2.56,3.55,4.6,6.19,6.13,2.7,1.59,5.66,2.38,8.88,2.38s6-.76,8.67-2.29c2.6-1.46,4.65-3.42,6.14-5.88l-2.64-1.02,8.52-5.25ZM35.88,303.92l2.64,1.02-8.52,5.25-1.72-9.23,2.89,1.17c1.25-2.24,2.86-4.18,4.82-5.84,1.99-1.68,4.23-2.98,6.69-3.89,2.57-.97,5.24-1.46,8.01-1.46,3.08,0,6,.58,8.77,1.75,2.7,1.1,5.07,2.66,7.1,4.67,2.06,2.01,3.63,4.31,4.72,6.9h-5.53c-1.49-2.56-3.55-4.6-6.19-6.12-2.71-1.59-5.66-2.38-8.88-2.38s-6,.76-8.67,2.28c-2.6,1.46-4.65,3.42-6.14,5.88ZM59.82,312.67c.57.94.86,1.99.86,3.16,0,1.4-.41,2.67-1.22,3.84-.78,1.17-1.88,2.04-3.3,2.62-.95.42-2.08.7-3.4.83v1.36h-3.75v-1.31c-2.91-.2-4.97-.88-6.19-2.04-1.49-1.43-2.33-3.22-2.54-5.4l6.64-.39c.14,1.03.42,1.81.86,2.33.71.87,1.72,1.31,3.04,1.31,1.01,0,1.78-.21,2.28-.63.54-.45.81-.97.81-1.55s-.25-1.08-.76-1.51c-.51-.45-1.69-.87-3.55-1.26-3.04-.65-5.22-1.51-6.54-2.58-1.28-1.1-1.93-2.5-1.93-4.18,0-1.14.34-2.19,1.01-3.16.68-.97,1.67-1.75,2.99-2.33,1.01-.42,2.3-.68,3.85-.78v-1.36h3.75v1.41c1.89.19,3.4.68,4.51,1.46,1.49,1,2.38,2.62,2.69,4.86l-6.54.39c-.17-.97-.54-1.69-1.12-2.14-.54-.45-1.3-.68-2.28-.68-.81,0-1.42.18-1.83.53-.41.33-.61.71-.61,1.17,0,.36.15.68.46.97.34.26,1.13.52,2.38.78,3.01.61,5.17,1.25,6.49,1.9,1.32.61,2.28,1.41,2.89,2.38Z"/>
  <path class="st14" d="M46.19,469.74v-12.43l11.48,6.21-11.48,6.21ZM71.73,453.4c-.52-1.81-1.98-3.22-3.84-3.71h-.04c-4.68-.57-10.08-.9-15.57-.9-.56,0-1.11,0-1.67,0h.08c-.47,0-1.03-.01-1.58-.01-5.49,0-10.9.33-16.21.95l.64-.06c-1.9.51-3.36,1.91-3.87,3.68v.04c-.59,2.94-.93,6.32-.93,9.77,0,.13,0,.25,0,.37v-.02c0,.1,0,.23,0,.35,0,3.46.34,6.84.98,10.12l-.06-.34c.52,1.81,1.98,3.21,3.84,3.71h.04c4.68.58,10.08.9,15.57.9.56,0,1.11,0,1.67,0h-.08c.47,0,1.03.01,1.58.01,5.49,0,10.9-.33,16.21-.95l-.64.06c1.9-.5,3.37-1.91,3.87-3.68v-.04c.59-2.94.93-6.32.93-9.78,0-.12,0-.24,0-.36v.02c0-.1,0-.23,0-.35,0-3.45-.34-6.83-.98-10.12l.05.34Z"/>
  <path class="st9" d="M60.82,548.07c.94,0,1.7.76,1.7,1.7v4.38h5.39c2.62,0,4.74,2.12,4.74,4.74v22.28c0,2.62-2.12,4.74-4.74,4.74h-34.44c-2.62,0-4.74-2.12-4.74-4.74v-22.28c0-2.62,2.12-4.74,4.74-4.74h5.39v-4.38c0-.94.76-1.7,1.7-1.7s1.7.76,1.7,1.7v4.38h16.85v-4.38c0-.94.76-1.7,1.7-1.7ZM33.47,557.56c-.74,0-1.34.6-1.34,1.34v22.28c0,.74.6,1.34,1.34,1.34h15.52v-24.96h-15.52ZM52.39,582.52h15.52c.74,0,1.34-.6,1.34-1.34v-22.28c0-.74-.6-1.34-1.34-1.34h-15.52v24.96ZM40.34,561.79c.48-.5,1.22-.66,1.86-.4.64.26,1.07.88,1.07,1.58v14.17c0,.94-.76,1.7-1.7,1.7s-1.7-.76-1.7-1.7v-9.93l-1.9,1.99c-.65.68-1.73.7-2.41.05-.68-.65-.7-1.73-.05-2.41l4.84-5.05ZM61.18,561.27c.83.1,1.51.53,2.01,1.03.57.56,1,1.29,1.33,2.06.66,1.54,1.03,3.55,1.03,5.69,0,2.13-.37,4.14-1.03,5.68-.33.77-.76,1.5-1.33,2.06-.58.57-1.38,1.05-2.38,1.05s-1.8-.48-2.38-1.05c-.57-.56-1-1.29-1.33-2.06-.66-1.54-1.03-3.55-1.03-5.68,0-2.13.37-4.14,1.03-5.69.33-.77.76-1.5,1.33-2.06.58-.57,1.38-1.05,2.38-1.05l.36.02ZM60.82,564.73c-.16.16-.37.46-.59.96-.44,1.03-.75,2.56-.75,4.35,0,1.78.31,3.32.75,4.34.21.5.43.8.59.96.16-.16.37-.46.59-.96.44-1.03.75-2.56.75-4.34,0-1.78-.31-3.32-.75-4.35-.22-.5-.43-.81-.59-.96Z"/>
  <g>
    <path class="st8" d="M50.38,658.04l-16.21,13.37s0,.05-.01.08c0,.04-.01.06-.01.08v13.53c0,.49.18.91.54,1.27.36.36.78.54,1.27.54h10.83v-10.83h7.22v10.83h10.83c.49,0,.91-.18,1.27-.54.36-.36.54-.78.54-1.27v-13.53c0-.08-.01-.13-.03-.17l-16.21-13.37Z"/>
    <path class="st13" d="M72.79,668.36l-6.17-5.13v-11.5c0-.26-.08-.48-.25-.65-.17-.17-.38-.25-.65-.25h-5.41c-.26,0-.48.08-.65.25-.17.17-.25.39-.25.65v5.5l-6.88-5.75c-.6-.49-1.32-.73-2.14-.73s-1.54.24-2.14.73l-20.27,16.89c-.19.15-.29.35-.31.61-.02.25.05.48.2.66l1.75,2.09c.15.17.35.27.59.31.23.02.45-.05.68-.2l19.51-16.27,19.51,16.27c.15.13.35.2.59.2h.08c.24-.04.44-.14.59-.31l1.75-2.09c.15-.19.22-.41.2-.66-.02-.25-.12-.46-.31-.61Z"/>
  </g>
</svg>