<?xml version="1.0" encoding="UTF-8"?>
<svg id="Layer_2" data-name="Layer 2" xmlns="http://www.w3.org/2000/svg" xmlns:xlink="http://www.w3.org/1999/xlink" viewBox="0 0 106.74 98.35">
  <defs>
    <style>
      .cls-1 {
        fill: url(#_무제_그라디언트_38);
      }
    </style>
    <linearGradient id="_무제_그라디언트_38" data-name="무제 그라디언트 38" x1="32.58" y1="50.53" x2="76.5" y2="50.53" gradientUnits="userSpaceOnUse">
      <stop offset="0" stop-color="#2a6eff"/>
      <stop offset=".99" stop-color="#89d6fd"/>
    </linearGradient>
  </defs>
  <path class="cls-1" d="M61.34,64.09v3.69h8.49v2.74h-30.57v-2.74h8.49v-3.69c0-.25.08-.47.25-.66.2-.19.41-.28.64-.28h11.88c.23,0,.43.09.59.28.16.19.25.41.25.66ZM73.65,30.54c.79,0,1.46.27,2.01.8.56.54.83,1.18.83,1.94v25.79c0,.76-.28,1.4-.83,1.94-.56.54-1.23.8-2.01.8h-38.18c-.79,0-1.47-.27-2.06-.8-.56-.54-.83-1.18-.83-1.94v-25.79c0-.76.28-1.4.83-1.94.59-.54,1.28-.8,2.06-.8h38.18ZM73.65,58.13v-23.95c0-.25-.1-.46-.29-.62-.16-.19-.38-.28-.64-.28h-36.32c-.26,0-.49.09-.69.28-.16.16-.25.36-.25.62v23.95c0,.25.08.47.25.66.2.19.43.28.69.28h36.32c.26,0,.47-.09.64-.28.2-.19.29-.41.29-.66ZM63.89,56.38v-14.48h5.15v14.48h-5.15ZM55.59,56.38v-18.98h5.2v18.98h-5.2ZM40.14,56.38v-5.58h5.15v5.58h-5.15ZM47.35,56.38v-10.03h5.15v10.03h-5.15Z"/>
</svg>