<?xml version="1.0" encoding="UTF-8"?>
<svg id="Layer_2" data-name="Layer 2" xmlns="http://www.w3.org/2000/svg" xmlns:xlink="http://www.w3.org/1999/xlink" viewBox="0 0 106.74 98.35">
  <defs>
    <style>
      .cls-1 {
        fill: url(#_무제_그라디언트_38);
      }
    </style>
    <linearGradient id="_무제_그라디언트_38" data-name="무제 그라디언트 38" x1="32.51" y1="50.53" x2="76.43" y2="50.53" gradientUnits="userSpaceOnUse">
      <stop offset="0" stop-color="#2a6eff"/>
      <stop offset=".99" stop-color="#89d6fd"/>
    </linearGradient>
  </defs>
  <path class="cls-1" d="M60.34,51.01c-.52-1.44-1.52-2.24-2.99-2.39-1.37-.13-1.98.45-1.81,1.74l.15.99c.13.88.2,1.53.2,1.97,0,.16-.07.34-.2.56-.13.19-.26.31-.39.38-2.87,1.16-5.86,1.27-8.97.33-.16-.03-.31-.13-.44-.28-.1-.19-.16-.34-.2-.47-.1-1.66.2-4.05.88-7.18.72-3.16,1.49-5.57,2.3-7.23,1.01.19,2.06.52,3.14.99.88.38,1.86.88,2.94,1.5,2.42,1.38,4.66,3.32,6.71,5.82.23.28.34.55.34.8,0,.22-.11.45-.34.7-.2.25-.49.64-.88,1.17l-.44.61ZM63.13,46.13c-1.6-2.22-3.56-4.1-5.88-5.64-2.12-1.41-4.64-2.6-7.55-3.57l2.65-4.04c.65-1,1.18-1.72,1.57-2.16.13-.16.31-.27.54-.33.26-.09.46-.13.59-.09,2.12.72,3.94,1.91,5.44,3.57,1.44,1.6,2.42,3.44,2.94,5.54.52,2.1.49,4.18-.1,6.25l-.2.47ZM43.09,53.13c-1.89-1.03-3.41-2.57-4.56-4.6-1.47-2.57-1.94-5.42-1.42-8.55.07-.38.18-.64.34-.8.2-.19.49-.3.88-.33,1.37-.16,2.52-.25,3.43-.28,1.27-.03,2.47.05,3.58.23-1.47,4.38-2.22,9.16-2.25,14.32ZM62.84,50.12l.44,4.74c.39.03.7-.05.93-.23.2-.16.38-.41.54-.75.39-.97.98-2.44,1.76-4.41l.69-1.83c.29-.81.54-1.39.74-1.74.1-.16.36-.33.78-.52l.44-.19.15.38c.13.41.18.69.15.85-.29,1.28-.75,3.22-1.37,5.82l-.59,2.25.05.47.29-.19c.23-.13.36-.22.39-.28.75-1.16,1.34-2.22,1.76-3.19.52-1.19.85-2.36.98-3.52.13-.85.41-1.63.83-2.35.1-.19.41-.36.93-.52l.49-.14.15.38c.13.38.18.66.15.85-.2,1.82-.42,3.43-.69,4.84-.26,1.38-.98,2.61-2.16,3.71-1.18,1.06-2.53,1.74-4.07,2.02-.72.13-1.58.39-2.6.8-.56.22-1.11.23-1.67.05-.56-.19-.95-.52-1.18-.99-.46-.97-.52-2.07-.2-3.29.33-1.25.95-2.25,1.86-3.01ZM45.59,55.8c.65.16,1.09.3,1.32.42.23.09.38.23.44.42.1.19.18.55.25,1.08v.19c.2,1.44.51,3.07.93,4.88.1.44.08.78-.05,1.03-.13.25-.39.39-.78.42-.91.06-1.68-.06-2.3-.38-1.05-.53-2.48-1.39-4.31-2.58l-.25-.14c-1.08-.72-1.85-1.3-2.3-1.74-.78-.72-1.27-1.53-1.47-2.44-.13-.56-.21-1.42-.25-2.58l-.05-.38c-.03-.78-.02-1.57.05-2.35,0-.13.03-.27.1-.42.1-.16.2-.25.29-.28.1-.03.23-.02.39.05.2.06.33.14.39.23.33.5.54.99.64,1.46.1.41.2.99.29,1.74.2,1.22.38,2.11.54,2.68.2.53.56,1.3,1.08,2.3l.54.99.25-.09-.64-7.18c.78.5,1.34.92,1.67,1.27.46.5.72,1.1.78,1.78.13.81.49,2.02,1.08,3.62l.29.75c.03.16.21.38.54.66l.34.28.2-.19v-5.49ZM50.29,29.51c-.2.31-.47.78-.83,1.41-1.24,2.16-2.19,3.77-2.84,4.84-.07.09-.18.19-.34.28-.13.06-.26.09-.39.09-1.21.03-3.05.05-5.54.05h-1.57c.23-1.06,1-2.16,2.3-3.29,1.27-1.03,2.74-1.86,4.41-2.49,1.76-.69,3.36-.99,4.8-.89ZM39.71,65.52c1.73,1.75,3.04,3.1,3.92,4.04.56.63,1.06,1.3,1.52,2.02h8.38v-1.36c.03-1.16.16-2.19.39-3.1.29-1.06.74-2.02,1.32-2.86.72-1,1.01-2.1.88-3.29-.03-.19-.05-.47-.05-.85.03-.41.03-.7,0-.89,0-.19-.07-.47-.2-.85l-.15-.33-.39.14c-.42.13-.74.25-.93.38-.29.19-.52.49-.69.89-.07.22-.18.58-.34,1.08-.16.63-.31,1.1-.44,1.41-.26.59-.59,1-.98,1.22-1.44.85-2.63,1.44-3.58,1.78-1.96.72-3.81.52-5.54-.61l1.13-.19c-.78-.56-1.98-1.27-3.58-2.11l-.64-.33c-.49-.25-.82-.47-.98-.66-.39-.53-.96-1.31-1.72-2.35l-1.27-1.83c-.69-.97-1.23-1.67-1.62-2.11-.13-.19-.44-.38-.93-.56l-.49-.19-.25.33v.14c.03.16.07.27.1.33l.44,1.03c.91,2.03,1.6,3.57,2.06,4.6.26.53.6,1,1.03,1.41.46.5,1.16,1.22,2.11,2.16l1.47,1.5ZM76.22,48.48c-.1-.03-.23-.05-.39-.05s-.28.05-.34.14c-.59.66-1.01,1.24-1.27,1.74-.13.25-.31.67-.54,1.27-.2.56-.36.97-.49,1.22-.1.22-.33.53-.69.94-.33.38-.54.67-.64.89-.56,1.13-1.5,1.89-2.84,2.3-.72.19-1.81.47-3.28.85l-1.47.38,1.47.85c-1.01.13-1.94.05-2.79-.23-.85-.31-1.54-.8-2.06-1.46s-.82-1.41-.88-2.25l-.05-.61v-.7c-.13-1.22-.41-2.13-.83-2.72-.52-.75-1.27-1.13-2.25-1.13l-.15.42c-.16.41-.23.7-.2.89.07.91.21,2.27.44,4.09.23,2.19.39,3.84.49,4.93.1,1,.08,1.85-.05,2.54-.16.88-.49,1.66-.98,2.35-.39.53-.72,1.11-.98,1.74-.26.63-.41,1.22-.44,1.78l-.15,2.96h6.81v-1.83c-.03-2.03.6-3.65,1.91-4.84.88-.78,2.22-1.93,4.02-3.43l2.79-2.39c.29-.25.77-.59,1.42-1.03.82-.56,1.4-1.02,1.76-1.36.56-.59.91-1.28,1.08-2.07.2-.78.57-1.97,1.13-3.57l.64-1.97c.03-.09.02-.2-.05-.33-.03-.16-.08-.25-.15-.28Z"/>
</svg>