<?xml version="1.0" encoding="UTF-8"?>
<svg id="Layer_2" data-name="Layer 2" xmlns="http://www.w3.org/2000/svg" xmlns:xlink="http://www.w3.org/1999/xlink" viewBox="0 0 106.74 98.35">
  <defs>
    <style>
      .cls-1 {
        fill: url(#_무제_그라디언트_38);
      }
    </style>
    <linearGradient id="_무제_그라디언트_38" data-name="무제 그라디언트 38" x1="30.24" y1="50.53" x2="78.55" y2="50.53" gradientUnits="userSpaceOnUse">
      <stop offset="0" stop-color="#2a6eff"/>
      <stop offset=".99" stop-color="#89d6fd"/>
    </linearGradient>
  </defs>
  <path class="cls-1" d="M78.53,62.53c0-.85-.14-2.46-.42-4.84-.28-2.38-.64-4.89-1.06-7.54-.42-2.64-.87-5.09-1.34-7.32-.22-1.49-.66-2.95-1.32-4.33-1.02-1.36-2.38-2.49-3.96-3.29-1.61-.95-3.49-1.47-5.42-1.51-1.72.05-3.36.69-4.57,1.8l-2.17,1.8h-7.87l-2.14-1.8c-1.21-1.12-2.86-1.77-4.59-1.8-1.95.03-3.85.57-5.47,1.55-1.54.82-2.87,1.93-3.91,3.25-.7,1.36-1.16,2.8-1.37,4.29-.47,2.26-.9,4.72-1.29,7.39s-.71,5.18-.97,7.56c-.25,2.41-.38,4.01-.38,4.8-.11.74.01,1.48.37,2.16.35.67.91,1.23,1.61,1.62,1.02.6,2.18.97,3.39,1.06,1.4-.06,2.73-.59,3.72-1.49,1.24-1,2.38-2.09,3.42-3.26,1.05-1.19,2-2.28,2.85-3.27.85-1.02,1.54-1.53,2.07-1.53h13.25c.5,0,1.19.51,2.07,1.53.88.99,1.87,2.08,2.95,3.27,1.06,1.16,2.22,2.26,3.46,3.26,1,.89,2.32,1.42,3.72,1.48,1.2-.09,2.35-.46,3.34-1.06.69-.4,1.25-.96,1.61-1.63.36-.67.5-1.41.42-2.15ZM50.4,48.05h-4.05v3.61h-4v-3.61h-4v-3.6h4v-3.65h4v3.65h4.05v3.6ZM67.92,42.36c0,.27-.06.54-.18.8-.12.25-.29.48-.51.67-.2.2-.45.35-.72.46s-.56.16-.86.16-.59-.06-.86-.16-.52-.26-.72-.46c-.22-.19-.39-.42-.51-.67-.12-.25-.18-.52-.18-.8,0-.27.06-.53.18-.78.12-.25.29-.47.51-.65.2-.2.45-.35.72-.46.27-.11.56-.16.86-.16.3,0,.59.06.86.16.27.11.52.26.72.46.22.18.39.4.51.65.12.24.18.51.18.78ZM63.4,46.22c0,.28-.06.55-.18.8-.12.25-.3.48-.53.67-.21.2-.46.35-.73.46-.28.11-.57.16-.87.16-.3,0-.59-.06-.86-.16-.27-.11-.52-.26-.72-.46-.22-.19-.39-.42-.51-.67-.12-.25-.18-.52-.18-.8,0-.27.06-.53.18-.78.12-.25.29-.46.51-.65.2-.2.45-.35.72-.46.27-.11.56-.16.86-.16.31,0,.62.04.91.15.29.11.55.27.76.47.41.38.64.89.64,1.42ZM72.49,46.22c0,.27-.06.54-.18.8-.12.25-.29.48-.51.67-.2.2-.45.35-.72.46-.27.11-.56.16-.86.16-.3,0-.6-.05-.88-.16-.28-.11-.53-.27-.74-.46-.22-.19-.39-.42-.51-.67-.12-.25-.18-.52-.18-.8,0-.27.06-.53.18-.78.12-.25.29-.46.51-.65.21-.2.46-.36.74-.46.28-.11.58-.16.88-.16s.59.06.86.16c.27.11.52.26.72.46.22.18.39.4.51.65.12.25.18.51.18.78h0ZM67.92,50.09c0,.27-.06.54-.18.8-.12.25-.29.48-.51.67-.2.2-.45.35-.72.46-.27.11-.56.16-.86.16s-.59-.06-.86-.16c-.27-.11-.52-.26-.72-.46-.22-.19-.39-.42-.51-.67-.12-.25-.18-.52-.18-.8,0-.27.06-.53.18-.78.12-.25.29-.47.51-.65.2-.2.45-.35.72-.46.27-.11.56-.16.86-.16s.59.06.86.16c.27.11.52.26.72.46.22.18.39.4.51.65.12.24.18.51.18.78Z"/>
</svg>