<?xml version="1.0" encoding="UTF-8"?>
<svg id="Layer_2" data-name="Layer 2" xmlns="http://www.w3.org/2000/svg" xmlns:xlink="http://www.w3.org/1999/xlink" viewBox="0 0 106.74 98.35">
  <defs>
    <style>
      .cls-1 {
        fill: url(#_무제_그라디언트_38);
        fill-rule: evenodd;
      }
    </style>
    <linearGradient id="_무제_그라디언트_38" data-name="무제 그라디언트 38" x1="28.26" y1="50.53" x2="80.97" y2="50.53" gradientUnits="userSpaceOnUse">
      <stop offset="0" stop-color="#2a6eff"/>
      <stop offset=".99" stop-color="#89d6fd"/>
    </linearGradient>
  </defs>
  <path class="cls-1" d="M63.61,30c.74-.68,1.93-.68,2.66,0,.73.68.73,1.79,0,2.47l-6.4,5.94c5.42.1,10.68.44,15.33.97h.05c2.23.57,3.99,2.15,4.61,4.19l-.07-.38c.77,3.69,1.17,7.51,1.17,11.4,0,.14,0,.28,0,.39v.39c0,3.89-.4,7.7-1.1,11.02v.04c-.62,2-2.38,3.58-4.66,4.15l.76-.07c-6.37.71-12.86,1.07-19.45,1.07-.67,0-1.34,0-1.9-.01h.1c-.67,0-1.34.01-2,.01-6.59,0-13.08-.36-18.69-1h-.05c-2.23-.57-3.99-2.15-4.61-4.19l.07.38c-.77-3.69-1.17-7.5-1.17-11.4v-.37c0-.14,0-.27,0-.41,0-3.89.4-7.71,1.1-11.02v-.04c.62-2,2.38-3.58,4.66-4.15l-.76.07c5.23-.58,10.54-.92,15.91-1.03l-6.4-5.94c-.73-.68-.73-1.79,0-2.47.74-.68,1.93-.68,2.66,0l9.03,8.38s.08,0,.11,0l9.04-8.38ZM37.67,49.74v10.49h7.63v-1.8h-5.15v-8.69h-2.48ZM46.9,49.74v10.49h2.47v-10.49h-2.47ZM50.71,49.74l4.14,10.49h3.19l4.13-10.49h-2.74l-2.92,7.99h-.12l-2.9-7.99h-2.77ZM63.52,49.74v10.49h8.04v-1.8h-5.56v-2.55h5.13v-1.8h-5.13v-2.55h5.55v-1.8h-8.02Z"/>
</svg>