<?xml version="1.0" encoding="UTF-8"?>
<svg id="Layer_2" data-name="Layer 2" xmlns="http://www.w3.org/2000/svg" xmlns:xlink="http://www.w3.org/1999/xlink" viewBox="0 0 106.74 98.35">
  <defs>
    <style>
      .cls-1 {
        fill: url(#_무제_그라디언트_38);
      }
    </style>
    <linearGradient id="_무제_그라디언트_38" data-name="무제 그라디언트 38" x1="32.19" y1="50.53" x2="75.86" y2="50.53" gradientUnits="userSpaceOnUse">
      <stop offset="0" stop-color="#2a6eff"/>
      <stop offset=".99" stop-color="#89d6fd"/>
    </linearGradient>
  </defs>
  <path class="cls-1" d="M72.59,66.88l-16.22-8.81v-18.72l16.22-8.81c.91,0,1.68.31,2.3.93.65.59.97,1.33.97,2.2v30.12c0,.85-.32,1.58-.97,2.2-.62.59-1.38.89-2.3.89ZM48.5,67.39c.03.79-.22,1.47-.75,2.03-.5.59-1.15.93-1.94,1.02.44.03.47.05.09.08h-.66c-.91,0-1.69-.31-2.34-.93-.62-.59-.93-1.32-.93-2.2l.04-9.66c-2.59,0-4.63-.34-6.1-1.02-1.38-.68-2.36-1.71-2.92-3.09-.53-1.21-.8-2.85-.8-4.91,0-2.32.31-4.15.93-5.51.65-1.35,1.68-2.33,3.09-2.92,1.41-.62,3.33-.93,5.75-.93h11.09v18.72h-4.55v9.32Z"/>
</svg>