<?xml version="1.0" encoding="UTF-8"?>
<svg id="Layer_2" data-name="Layer 2" xmlns="http://www.w3.org/2000/svg" xmlns:xlink="http://www.w3.org/1999/xlink" viewBox="0 0 106.74 98.35">
  <defs>
    <style>
      .cls-1 {
        fill: url(#_무제_그라디언트_38);
      }

      .cls-2 {
        fill: url(#_무제_그라디언트_38-2);
      }
    </style>
    <linearGradient id="_무제_그라디언트_38" data-name="무제 그라디언트 38" x1="45.93" y1="54.74" x2="77.31" y2="54.74" gradientUnits="userSpaceOnUse">
      <stop offset="0" stop-color="#2a6eff"/>
      <stop offset=".99" stop-color="#89d6fd"/>
    </linearGradient>
    <linearGradient id="_무제_그라디언트_38-2" data-name="무제 그라디언트 38" x1="31.19" y1="46.33" x2="62.69" y2="46.33" xlink:href="#_무제_그라디언트_38"/>
  </defs>
  <path class="cls-1" d="M69.46,41.05c4.33,0,7.85,3.48,7.85,7.77v8.3c0,3.29-2.06,6.1-4.98,7.23l-.26,3.29c-.06.72-.93,1.05-1.45.54l-3.46-3.3h-13.49c-3.86,0-7.07-2.76-7.72-6.39h9.96c4.82,0,8.73-3.86,8.73-8.63v-8.81h4.84Z"/>
  <path class="cls-2" d="M54.84,32.65c4.33,0,7.85,3.48,7.85,7.77v8.3c0,4.29-3.51,7.77-7.85,7.77h-13.49l-3.46,3.3c-.52.5-1.4.17-1.45-.55l-.26-3.29c-2.91-1.13-4.98-3.94-4.98-7.23v-8.3c0-4.29,3.51-7.77,7.85-7.77h15.8Z"/>
</svg>