<?xml version="1.0" encoding="UTF-8"?>
<svg id="Layer_2" data-name="Layer 2" xmlns="http://www.w3.org/2000/svg" xmlns:xlink="http://www.w3.org/1999/xlink" viewBox="0 0 106.74 98.35">
  <defs>
    <style>
      .cls-1 {
        fill: url(#_무제_그라디언트_38);
      }
    </style>
    <linearGradient id="_무제_그라디언트_38" data-name="무제 그라디언트 38" x1="31.9" y1="50.53" x2="76.74" y2="50.53" gradientUnits="userSpaceOnUse">
      <stop offset="0" stop-color="#2a6eff"/>
      <stop offset=".99" stop-color="#89d6fd"/>
    </linearGradient>
  </defs>
  <path class="cls-1" d="M75.01,52.33l1.72,9.23-2.89-1.17c-1.25,2.24-2.87,4.18-4.87,5.83-1.96,1.68-4.18,2.98-6.64,3.89-2.57.97-5.24,1.46-8.01,1.46-3.08,0-6-.58-8.77-1.75-2.71-1.1-5.09-2.66-7.15-4.66-2.03-2.01-3.58-4.31-4.67-6.9h5.53c1.49,2.56,3.55,4.6,6.19,6.13,2.7,1.59,5.66,2.38,8.88,2.38s6-.76,8.67-2.29c2.6-1.46,4.65-3.42,6.14-5.88l-2.64-1.02,8.52-5.25ZM39.51,42.46l2.64,1.02-8.52,5.25-1.72-9.23,2.89,1.17c1.25-2.24,2.86-4.18,4.82-5.84,1.99-1.68,4.23-2.98,6.69-3.89,2.57-.97,5.24-1.46,8.01-1.46,3.08,0,6,.58,8.77,1.75,2.7,1.1,5.07,2.66,7.1,4.67,2.06,2.01,3.63,4.31,4.72,6.9h-5.53c-1.49-2.56-3.55-4.6-6.19-6.12-2.71-1.59-5.66-2.38-8.88-2.38s-6,.76-8.67,2.28c-2.6,1.46-4.65,3.42-6.14,5.88ZM63.45,51.21c.57.94.86,1.99.86,3.16,0,1.4-.41,2.67-1.22,3.84-.78,1.17-1.88,2.04-3.3,2.62-.95.42-2.08.7-3.4.83v1.36h-3.75v-1.31c-2.91-.2-4.97-.88-6.19-2.04-1.49-1.43-2.33-3.22-2.54-5.4l6.64-.39c.14,1.03.42,1.81.86,2.33.71.87,1.72,1.31,3.04,1.31,1.01,0,1.78-.21,2.28-.63.54-.45.81-.97.81-1.55s-.25-1.08-.76-1.51c-.51-.45-1.69-.87-3.55-1.26-3.04-.65-5.22-1.51-6.54-2.58-1.28-1.1-1.93-2.5-1.93-4.18,0-1.14.34-2.19,1.01-3.16.68-.97,1.67-1.75,2.99-2.33,1.01-.42,2.3-.68,3.85-.78v-1.36h3.75v1.41c1.89.19,3.4.68,4.51,1.46,1.49,1,2.38,2.62,2.69,4.86l-6.54.39c-.17-.97-.54-1.69-1.12-2.14-.54-.45-1.3-.68-2.28-.68-.81,0-1.42.18-1.83.53-.41.33-.61.71-.61,1.17,0,.36.15.68.46.97.34.26,1.13.52,2.38.78,3.01.61,5.17,1.25,6.49,1.9,1.32.61,2.28,1.41,2.89,2.38Z"/>
</svg>