<?xml version="1.0" encoding="UTF-8"?>
<svg id="Layer_2" data-name="Layer 2" xmlns="http://www.w3.org/2000/svg" xmlns:xlink="http://www.w3.org/1999/xlink" viewBox="0 0 106.74 98.35">
  <defs>
    <style>
      .cls-1 {
        fill: url(#_무제_그라디언트_38);
      }
    </style>
    <linearGradient id="_무제_그라디언트_38" data-name="무제 그라디언트 38" x1="30.53" y1="50.53" x2="78.84" y2="50.53" gradientUnits="userSpaceOnUse">
      <stop offset="0" stop-color="#2a6eff"/>
      <stop offset=".99" stop-color="#89d6fd"/>
    </linearGradient>
  </defs>
  <path class="cls-1" d="M54.58,25.28c.95,0,1.83.24,2.62.7l.33.21.03.02h0c2.48,1.83,5.17,3.29,8.09,4.41,2.62.72,5.3,1.31,8.01,1.75l1.18.18h.03s.03.01.03.01c1.03.2,1.91.69,2.62,1.43.71.72,1.14,1.58,1.25,2.55l.08.76-.18.08.04,1.04h0c.04,1.53.04,3.19,0,4.97,0,2.5-.08,5.09-.25,7.79v.04s0,.04,0,.04c-.52,3.76-1.68,7.27-3.49,10.53h0c-1.6,2.89-3.62,5.44-6.09,7.66-2.25,2.01-4.68,3.6-7.3,4.74-2.44,1.05-4.75,1.61-6.92,1.61-2.18,0-4.67-.75-7.41-2.1h-.02c-2.72-1.42-5.3-3.27-7.74-5.54-2.65-2.47-4.76-5.09-6.32-7.88h0c-1.73-3.15-2.62-6.22-2.62-9.22,0-2.83.02-6.07.06-9.71l.06-4.65c0-1.01.38-1.91,1.1-2.68.73-.78,1.67-1.26,2.77-1.41h.03s.03,0,.03,0c3.04-.26,5.98-.93,8.82-2.01l.05-.02.05-.02c3.04-.88,5.71-2.31,8.03-4.29l.04-.04.05-.03c.87-.61,1.87-.92,2.95-.92ZM67.71,43.62c-.24-.02-.4.04-.58.2h-.01s-.01.02-.01.02l-7.2,6.33-7.2,6.33-.85.75-.81-.79-7.23-7.09-.02-.02c-.19-.19-.39-.28-.69-.28h-.08c-.24-.02-.45.04-.68.24-.22.19-.33.39-.36.68,0,.23.09.45.31.67l8.7,8.45.34.23.14.08c.13.06.26.08.4.07.25-.05.42-.14.56-.26h.01s.01-.02.01-.02l7.98-7,7.98-7,.22-.2c.06-.11.09-.22.09-.34v-.07c.02-.29-.06-.5-.25-.7-.19-.19-.39-.28-.69-.28h-.08Z"/>
</svg>