<?xml version="1.0" encoding="UTF-8"?>
<svg id="Layer_2" data-name="Layer 2" xmlns="http://www.w3.org/2000/svg" xmlns:xlink="http://www.w3.org/1999/xlink" viewBox="0 0 106.74 98.35">
  <defs>
    <style>
      .cls-1 {
        fill: url(#_무제_그라디언트_38);
      }
    </style>
    <linearGradient id="_무제_그라디언트_38" data-name="무제 그라디언트 38" x1="32.14" y1="50.53" x2="76.06" y2="50.53" gradientUnits="userSpaceOnUse">
      <stop offset="0" stop-color="#2a6eff"/>
      <stop offset=".99" stop-color="#89d6fd"/>
    </linearGradient>
  </defs>
  <path class="cls-1" d="M49.61,56.75v-12.43l11.48,6.21-11.48,6.21ZM75.14,40.41c-.52-1.81-1.98-3.22-3.84-3.71h-.04c-4.68-.57-10.08-.9-15.57-.9-.56,0-1.11,0-1.67,0h.08c-.47,0-1.03-.01-1.58-.01-5.49,0-10.9.33-16.21.95l.64-.06c-1.9.51-3.36,1.91-3.87,3.68v.04c-.59,2.94-.93,6.32-.93,9.77,0,.13,0,.25,0,.37v-.02c0,.1,0,.23,0,.35,0,3.46.34,6.84.98,10.12l-.06-.34c.52,1.81,1.98,3.21,3.84,3.71h.04c4.68.58,10.08.9,15.57.9.56,0,1.11,0,1.67,0h-.08c.47,0,1.03.01,1.58.01,5.49,0,10.9-.33,16.21-.95l-.64.06c1.9-.5,3.37-1.91,3.87-3.68v-.04c.59-2.94.93-6.32.93-9.78,0-.12,0-.24,0-.36v.02c0-.1,0-.23,0-.35,0-3.45-.34-6.83-.98-10.12l.05.34Z"/>
</svg>