<?xml version="1.0" encoding="UTF-8"?>
<svg id="Layer_2" data-name="Layer 2" xmlns="http://www.w3.org/2000/svg" xmlns:xlink="http://www.w3.org/1999/xlink" viewBox="0 0 106.74 98.35">
  <defs>
    <style>
      .cls-1 {
        fill: url(#_무제_그라디언트_38);
      }

      .cls-2 {
        fill: url(#_무제_그라디언트_38-2);
      }
    </style>
    <linearGradient id="_무제_그라디언트_38" data-name="무제 그라디언트 38" x1="37.57" y1="54.19" x2="70.05" y2="54.19" gradientUnits="userSpaceOnUse">
      <stop offset="0" stop-color="#2a6eff"/>
      <stop offset=".99" stop-color="#89d6fd"/>
    </linearGradient>
    <linearGradient id="_무제_그라디언트_38-2" data-name="무제 그라디언트 38" x1="31.08" y1="43.09" x2="76.54" y2="43.09" xlink:href="#_무제_그라디언트_38"/>
  </defs>
  <path class="cls-1" d="M53.81,39.75l-16.21,13.37s0,.05-.01.08c0,.04-.01.06-.01.08v13.53c0,.49.18.91.54,1.27.36.36.78.54,1.27.54h10.83v-10.83h7.22v10.83h10.83c.49,0,.91-.18,1.27-.54.36-.36.54-.78.54-1.27v-13.53c0-.08-.01-.13-.03-.17l-16.21-13.37Z"/>
  <path class="cls-2" d="M76.23,50.07l-6.17-5.13v-11.5c0-.26-.08-.48-.25-.65-.17-.17-.38-.25-.65-.25h-5.41c-.26,0-.48.08-.65.25-.17.17-.25.39-.25.65v5.5l-6.88-5.75c-.6-.49-1.32-.73-2.14-.73s-1.54.24-2.14.73l-20.27,16.89c-.19.15-.29.35-.31.61-.02.25.05.48.2.66l1.75,2.09c.15.17.35.27.59.31.23.02.45-.05.68-.2l19.51-16.27,19.51,16.27c.15.13.35.2.59.2h.08c.24-.04.44-.14.59-.31l1.75-2.09c.15-.19.22-.41.2-.66-.02-.25-.12-.46-.31-.61Z"/>
</svg>