<?xml version="1.0" encoding="UTF-8"?>
<svg id="Layer_2" data-name="Layer 2" xmlns="http://www.w3.org/2000/svg" xmlns:xlink="http://www.w3.org/1999/xlink" viewBox="0 0 106.74 98.35">
  <defs>
    <style>
      .cls-1 {
        fill: url(#_무제_그라디언트_38);
      }
    </style>
    <linearGradient id="_무제_그라디언트_38" data-name="무제 그라디언트 38" x1="31.99" y1="50.53" x2="75.92" y2="50.53" gradientUnits="userSpaceOnUse">
      <stop offset="0" stop-color="#2a6eff"/>
      <stop offset=".99" stop-color="#89d6fd"/>
    </linearGradient>
  </defs>
  <path class="cls-1" d="M64.09,31.61c.94,0,1.7.76,1.7,1.7v4.38h5.39c2.62,0,4.74,2.12,4.74,4.74v22.28c0,2.62-2.12,4.74-4.74,4.74h-34.44c-2.62,0-4.74-2.12-4.74-4.74v-22.28c0-2.62,2.12-4.74,4.74-4.74h5.39v-4.38c0-.94.76-1.7,1.7-1.7s1.7.76,1.7,1.7v4.38h16.85v-4.38c0-.94.76-1.7,1.7-1.7ZM36.74,41.09c-.74,0-1.34.6-1.34,1.34v22.28c0,.74.6,1.34,1.34,1.34h15.52v-24.96h-15.52ZM55.66,66.06h15.52c.74,0,1.34-.6,1.34-1.34v-22.28c0-.74-.6-1.34-1.34-1.34h-15.52v24.96ZM43.61,45.32c.48-.5,1.22-.66,1.86-.4.64.26,1.07.88,1.07,1.58v14.17c0,.94-.76,1.7-1.7,1.7s-1.7-.76-1.7-1.7v-9.93l-1.9,1.99c-.65.68-1.73.7-2.41.05-.68-.65-.7-1.73-.05-2.41l4.84-5.05ZM64.45,44.8c.83.1,1.51.53,2.01,1.03.57.56,1,1.29,1.33,2.06.66,1.54,1.03,3.55,1.03,5.69,0,2.13-.37,4.14-1.03,5.68-.33.77-.76,1.5-1.33,2.06-.58.57-1.38,1.05-2.38,1.05s-1.8-.48-2.38-1.05c-.57-.56-1-1.29-1.33-2.06-.66-1.54-1.03-3.55-1.03-5.68,0-2.13.37-4.14,1.03-5.69.33-.77.76-1.5,1.33-2.06.58-.57,1.38-1.05,2.38-1.05l.36.02ZM64.09,48.26c-.16.16-.37.46-.59.96-.44,1.03-.75,2.56-.75,4.35,0,1.78.31,3.32.75,4.34.21.5.43.8.59.96.16-.16.37-.46.59-.96.44-1.03.75-2.56.75-4.34,0-1.78-.31-3.32-.75-4.35-.22-.5-.43-.81-.59-.96Z"/>
</svg>