<?xml version="1.0" encoding="UTF-8"?>
<svg id="Layer_2" data-name="Layer 2" xmlns="http://www.w3.org/2000/svg" xmlns:xlink="http://www.w3.org/1999/xlink" viewBox="0 0 106.74 98.35">
  <defs>
    <style>
      .cls-1 {
        fill: url(#_무제_그라디언트_38);
      }
    </style>
    <linearGradient id="_무제_그라디언트_38" data-name="무제 그라디언트 38" x1="32.2" y1="50.53" x2="76.15" y2="50.53" gradientUnits="userSpaceOnUse">
      <stop offset="0" stop-color="#2a6eff"/>
      <stop offset=".99" stop-color="#89d6fd"/>
    </linearGradient>
  </defs>
  <path class="cls-1" d="M52.79,33.33c.5.27.83.6.99.99.16.39.11.72-.14.99-.25.27-.69.39-1.32.36h-7.15c-.88,0-1.44-.36-1.69-1.08-.16-.54-.19-1.29-.09-2.25.13-.99.36-1.73.71-2.21.44-.69,1.08-.81,1.93-.36l3.1,1.62c2.04,1.05,3.26,1.7,3.67,1.94ZM32.24,40.22h-.05c0-.78.19-1.32.56-1.62.38-.36,1.1-.54,2.16-.54h17.68v8.83h-17.63c-1.07,0-1.79-.18-2.16-.54-.38-.39-.56-1.01-.56-1.84v-4.28ZM34.08,66.4v-16.76h18.43v21.94h-12.08c-2.13,0-3.71-.45-4.75-1.35-1.03-.87-1.57-2.15-1.6-3.83ZM76.15,40.41v4.14c0,.84-.2,1.44-.61,1.8-.38.36-1.1.54-2.16.54h-17.54v-8.83h17.39c1.07,0,1.83.21,2.3.63.41.36.61.93.61,1.71ZM65.43,32.34c.09.96.06,1.7-.09,2.21-.25.75-.81,1.12-1.69,1.12h-7.15c-.63,0-1.07-.13-1.32-.41-.25-.27-.3-.58-.14-.94.16-.39.45-.72.89-.99.47-.27,1.74-.95,3.81-2.03l3.06-1.58c.81-.42,1.46-.28,1.93.41.34.48.58,1.22.71,2.21ZM55.84,49.64l18.01-.04v16.62c0,1.71-.5,3.02-1.5,3.92-1.07.96-2.63,1.44-4.7,1.44h-11.8v-21.94Z"/>
</svg>