<?xml version="1.0" encoding="UTF-8"?>
<svg id="Layer_2" data-name="Layer 2" xmlns="http://www.w3.org/2000/svg" xmlns:xlink="http://www.w3.org/1999/xlink" viewBox="0 0 106.74 98.35">
  <defs>
    <style>
      .cls-1 {
        fill: url(#_무제_그라디언트_38);
      }
    </style>
    <linearGradient id="_무제_그라디언트_38" data-name="무제 그라디언트 38" x1="29.92" y1="50.53" x2="73.84" y2="50.53" gradientUnits="userSpaceOnUse">
      <stop offset="0" stop-color="#2a6eff"/>
      <stop offset=".99" stop-color="#89d6fd"/>
    </linearGradient>
  </defs>
  <path class="cls-1" d="M35.58,56.34c.77,0,1.21-.44,1.21-1.21v-9.21c0-.77-.44-1.21-1.21-1.21h-5.66v11.64h5.66ZM46.42,50.51c0,2.52,1.8,4.68,4.15,5.25v-10.46c-1.18.26-2.24.92-3,1.87-.75.95-1.16,2.13-1.15,3.34ZM53.11,55.76c2.37-.57,4.12-2.73,4.15-5.25.02-2.52-1.77-4.64-4.15-5.2v10.46ZM68.18,44.71c-.77,0-1.21.44-1.21,1.21v9.21c0,.77.44,1.21,1.21,1.21h5.66v-11.64h-5.66ZM73.84,58.89h-5.71c-2.33,0-3.71-1.37-3.71-3.71v-9.31c0-2.33,1.37-3.7,3.71-3.7h5.71v-1.63c0-3.25-1.66-4.89-4.95-4.89h-15.79v7.27c3.69.6,6.42,3.74,6.47,7.6.05,3.89-2.76,7.03-6.47,7.63v7.26h15.79c3.3,0,4.95-1.64,4.95-4.89v-1.64ZM29.92,58.89v1.64c0,3.25,1.67,4.89,4.95,4.89h15.69v-7.26c-3.69-.58-6.47-3.72-6.47-7.63s2.78-7.07,6.47-7.63v-7.24h-15.69c-3.28,0-4.95,1.62-4.95,4.89v1.63h5.71c2.33,0,3.71,1.37,3.71,3.7v9.31c0,2.33-1.37,3.71-3.71,3.71h-5.71Z"/>
</svg>